<svg width="1536" height="128" viewBox="0 0 1536 128" fill="none" xmlns="http://www.w3.org/2000/svg">
<g id="Vector">
<path d="M1443.9 125V2.80061H1496.97C1504.65 2.80061 1511.34 4.13899 1517.05 6.81574C1522.75 9.49249 1527.17 13.2748 1530.31 18.1628C1533.46 23.0508 1535.03 28.8116 1535.03 35.4453V37.5401C1535.03 44.8721 1533.28 50.8075 1529.79 55.3463C1526.3 59.8852 1521.99 63.202 1516.87 65.2969V68.4391C1521.53 68.6719 1525.13 70.3012 1527.7 73.3271C1530.26 76.2366 1531.54 80.1354 1531.54 85.0233V125H1508.49V88.3402C1508.49 85.5471 1507.74 83.2776 1506.22 81.5319C1504.83 79.7862 1502.44 78.9134 1499.07 78.9134H1466.94V125H1443.9ZM1466.94 57.9649H1494.53C1500 57.9649 1504.24 56.5102 1507.27 53.6006C1510.41 50.5748 1511.98 46.6178 1511.98 41.7298V39.9841C1511.98 35.0962 1510.47 31.1974 1507.44 28.2879C1504.42 25.262 1500.11 23.7491 1494.53 23.7491H1466.94V57.9649Z" fill="black"/>
<path d="M1373.41 127.444C1358.05 127.444 1345.83 123.254 1336.75 114.875C1327.68 106.379 1323.14 94.2756 1323.14 78.5642V49.2364C1323.14 33.525 1327.68 21.4797 1336.75 13.1003C1345.83 4.60451 1358.05 0.356628 1373.41 0.356628C1388.78 0.356628 1401 4.60451 1410.07 13.1003C1419.15 21.4797 1423.69 33.525 1423.69 49.2364V78.5642C1423.69 94.2756 1419.15 106.379 1410.07 114.875C1401 123.254 1388.78 127.444 1373.41 127.444ZM1373.41 106.845C1382.03 106.845 1388.72 104.342 1393.49 99.3381C1398.26 94.3338 1400.65 87.6419 1400.65 79.2625V48.5381C1400.65 40.1587 1398.26 33.4668 1393.49 28.4625C1388.72 23.4581 1382.03 20.956 1373.41 20.956C1364.92 20.956 1358.23 23.4581 1353.34 28.4625C1348.57 33.4668 1346.18 40.1587 1346.18 48.5381V79.2625C1346.18 87.6419 1348.57 94.3338 1353.34 99.3381C1358.23 104.342 1364.92 106.845 1373.41 106.845Z" fill="black"/>
<path d="M1233.7 125V2.80061H1310.51V23.7491H1256.74V53.2515H1306.32V74.2H1256.74V125H1233.7Z" fill="black"/>
<path d="M1114.68 125L1146.8 2.80061H1186.95L1219.07 125H1195.33L1188.7 98.1161H1145.06L1138.42 125H1114.68ZM1150.47 76.8185H1183.29L1168.45 17.29H1165.31L1150.47 76.8185Z" fill="black"/>
<path d="M1013.78 125V2.80061H1036.83V51.3312H1039.97L1079.6 2.80061H1109.1L1058.12 63.0274L1110.84 125H1080.47L1039.97 75.422H1036.83V125H1013.78Z" fill="black"/>
<path d="M943.294 127.444C927.932 127.444 915.712 123.254 906.635 114.875C897.557 106.379 893.018 94.2756 893.018 78.5642V49.2364C893.018 33.525 897.557 21.4797 906.635 13.1003C915.712 4.60451 927.932 0.356628 943.294 0.356628C958.657 0.356628 970.877 4.60451 979.954 13.1003C989.032 21.4797 993.571 33.525 993.571 49.2364V78.5642C993.571 94.2756 989.032 106.379 979.954 114.875C970.877 123.254 958.657 127.444 943.294 127.444ZM943.294 106.845C951.907 106.845 958.598 104.342 963.37 99.3381C968.142 94.3338 970.527 87.6419 970.527 79.2625V48.5381C970.527 40.1587 968.142 33.4668 963.37 28.4625C958.598 23.4581 951.907 20.956 943.294 20.956C934.799 20.956 928.107 23.4581 923.219 28.4625C918.447 33.4668 916.061 40.1587 916.061 48.5381V79.2625C916.061 87.6419 918.447 94.3338 923.219 99.3381C928.107 104.342 934.799 106.845 943.294 106.845Z" fill="black"/>
<path d="M780.998 127.444C765.636 127.444 753.416 123.254 744.339 114.875C735.261 106.379 730.722 94.2756 730.722 78.5642V49.2364C730.722 33.525 735.261 21.4797 744.339 13.1003C753.416 4.60451 765.636 0.356628 780.998 0.356628C796.361 0.356628 808.581 4.60451 817.658 13.1003C826.736 21.4797 831.275 33.525 831.275 49.2364V78.5642C831.275 94.2756 826.736 106.379 817.658 114.875C808.581 123.254 796.361 127.444 780.998 127.444ZM780.998 106.845C789.611 106.845 796.302 104.342 801.074 99.3381C805.846 94.3338 808.231 87.6419 808.231 79.2625V48.5381C808.231 40.1587 805.846 33.4668 801.074 28.4625C796.302 23.4581 789.611 20.956 780.998 20.956C772.503 20.956 765.811 23.4581 760.923 28.4625C756.151 33.4668 753.765 40.1587 753.765 48.5381V79.2625C753.765 87.6419 756.151 94.3338 760.923 99.3381C765.811 104.342 772.503 106.845 780.998 106.845Z" fill="black"/>
<path d="M670.068 127.444C660.642 127.444 652.32 125.756 645.105 122.381C637.889 119.006 632.245 114.177 628.172 107.892C624.098 101.608 622.062 94.0428 622.062 85.1979V80.3099H644.756V85.1979C644.756 92.5299 647.025 98.0579 651.564 101.782C656.103 105.39 662.271 107.194 670.068 107.194C677.982 107.194 683.86 105.623 687.7 102.48C691.657 99.3381 693.635 95.323 693.635 90.435C693.635 87.06 692.646 84.3251 690.668 82.2302C688.806 80.1354 686.013 78.4478 682.288 77.1677C678.681 75.7711 674.258 74.4909 669.021 73.3271L665.006 72.4543C656.627 70.5922 649.411 68.2646 643.359 65.4714C637.424 62.5619 632.827 58.7796 629.568 54.1243C626.426 49.4691 624.855 43.4174 624.855 35.969C624.855 28.5207 626.6 22.1779 630.092 16.9408C633.7 11.5873 638.704 7.51402 645.105 4.7209C651.622 1.81138 659.245 0.356628 667.974 0.356628C676.702 0.356628 684.441 1.86957 691.191 4.89547C698.058 7.80497 703.411 12.2274 707.252 18.1628C711.209 23.9818 713.187 31.3138 713.187 40.1587V45.3958H690.493V40.1587C690.493 35.5035 689.562 31.7793 687.7 28.9862C685.954 26.0767 683.394 23.9818 680.019 22.7017C676.644 21.3051 672.629 20.6068 667.974 20.6068C660.991 20.6068 655.812 21.9452 652.437 24.6219C649.178 27.1823 647.549 30.7319 647.549 35.2707C647.549 38.2966 648.305 40.857 649.818 42.9518C651.448 45.0467 653.833 46.7924 656.976 48.189C660.118 49.5855 664.133 50.8075 669.021 51.8549L673.036 52.7278C681.765 54.5899 689.329 56.9757 695.73 59.8852C702.248 62.7947 707.31 66.6352 710.918 71.4068C714.526 76.1784 716.33 82.2884 716.33 89.7367C716.33 97.1851 714.409 103.761 710.569 109.463C706.845 115.049 701.491 119.472 694.508 122.731C687.642 125.873 679.495 127.444 670.068 127.444Z" fill="black"/>
<path d="M510.699 125V2.80061H554.516L578.782 109.289H581.924V2.80061H604.618V125H560.801L536.536 18.512H533.393V125H510.699Z" fill="black"/>
<path d="M440.211 127.444C424.849 127.444 412.629 123.254 403.551 114.875C394.473 106.379 389.935 94.2756 389.935 78.5642V49.2364C389.935 33.525 394.473 21.4797 403.551 13.1003C412.629 4.60451 424.849 0.356628 440.211 0.356628C455.573 0.356628 467.793 4.60451 476.871 13.1003C485.948 21.4797 490.487 33.525 490.487 49.2364V78.5642C490.487 94.2756 485.948 106.379 476.871 114.875C467.793 123.254 455.573 127.444 440.211 127.444ZM440.211 106.845C448.823 106.845 455.515 104.342 460.286 99.3381C465.058 94.3338 467.444 87.6419 467.444 79.2625V48.5381C467.444 40.1587 465.058 33.4668 460.286 28.4625C455.515 23.4581 448.823 20.956 440.211 20.956C431.715 20.956 425.023 23.4581 420.135 28.4625C415.364 33.4668 412.978 40.1587 412.978 48.5381V79.2625C412.978 87.6419 415.364 94.3338 420.135 99.3381C425.023 104.342 431.715 106.845 440.211 106.845Z" fill="black"/>
<path d="M275.779 125V2.80061H319.596L343.862 109.289H347.004V2.80061H369.698V125H325.881L301.616 18.512H298.473V125H275.779Z" fill="black"/>
<path d="M229.75 125V2.80061H252.793V125H229.75Z" fill="black"/>
<path d="M115.188 125V2.80061H138.231V53.2515H183.62V2.80061H206.663V125H183.62V74.2H138.231V125H115.188Z" fill="black"/>
<path d="M49.278 127.444C34.1485 127.444 22.1613 123.254 13.3164 114.875C4.47152 106.379 0.0490723 94.2756 0.0490723 78.5642V49.2364C0.0490723 33.525 4.47152 21.4797 13.3164 13.1003C22.1613 4.60451 34.1485 0.356628 49.278 0.356628C64.291 0.356628 75.8709 4.48813 84.0175 12.7511C92.2805 20.8978 96.412 32.1285 96.412 46.4432V47.4907H73.7178V45.745C73.7178 38.5294 71.6812 32.594 67.6079 27.9388C63.6509 23.2836 57.541 20.956 49.278 20.956C41.1313 20.956 34.7304 23.4581 30.0752 28.4625C25.42 33.4668 23.0924 40.2751 23.0924 48.8872V78.9134C23.0924 87.4091 25.42 94.2174 30.0752 99.3381C34.7304 104.342 41.1313 106.845 49.278 106.845C57.541 106.845 63.6509 104.517 67.6079 99.8618C71.6812 95.0902 73.7178 89.1548 73.7178 82.0556V78.9134H96.412V81.3574C96.412 95.6721 92.2805 106.961 84.0175 115.224C75.8709 123.371 64.291 127.444 49.278 127.444Z" fill="black"/>
</g>
</svg>
